<svg xmlns="http://www.w3.org/2000/svg" xmlns:xlink="http://www.w3.org/1999/xlink" viewBox="0 0 85.61 65.19"><defs><style>.cls-1{isolation:isolate;}.cls-2{mix-blend-mode:screen;}.cls-3{fill:url(#linear-gradient);}.cls-4{fill:url(#linear-gradient-2);}.cls-5{fill:#3f3f3f;}.cls-6{fill:#282828;}.cls-7{fill:#475e7f;}.cls-8{fill:#515151;}.cls-9{fill:#474747;}.cls-10{fill:#1a300e;}.cls-11{fill:#2b4f17;}.cls-12{fill:#ace042;}.cls-13{fill:#cfcfcf;}.cls-14{fill:#fff;}.cls-15{fill:url(#linear-gradient-3);}.cls-16{mix-blend-mode:multiply;}.cls-17{fill:#fcfbf9;}.cls-18{fill:#f9f7f4;}.cls-19{fill:#f6f3ee;}.cls-20{fill:#f3efe9;}.cls-21{fill:#f0ebe3;}.cls-22{fill:#eee6de;}.cls-23{fill:#ebe2d8;}.cls-24{fill:#e8ded3;}.cls-25{fill:#e5dacd;}.cls-26{fill:#e2d6c8;}.cls-27{fill:#dfd2c2;}.cls-28{fill:url(#linear-gradient-4);}.cls-29{fill:#427a23;}.cls-30{fill:#284a15;}.cls-31{fill:#c61aba;}.cls-32{fill:#a1a1a1;}</style><linearGradient id="linear-gradient" x1="-182.3" y1="16.47" x2="-182.3" y2="22.54" gradientTransform="matrix(-1, 0, 0, 1, -106.31, 0)" gradientUnits="userSpaceOnUse"><stop offset="0" stop-color="#7fd103"/><stop offset="1" stop-color="#73b80c"/></linearGradient><linearGradient id="linear-gradient-2" x1="-190.98" y1="16.47" x2="-190.98" y2="22.54" gradientTransform="translate(202.32)" xlink:href="#linear-gradient"/><linearGradient id="linear-gradient-3" x1="70.54" y1="35.88" x2="80.44" y2="35.88" gradientUnits="userSpaceOnUse"><stop offset="0" stop-color="#db2a24"/><stop offset="1" stop-color="#a10600"/></linearGradient><linearGradient id="linear-gradient-4" x1="79.23" y1="35.88" x2="89.12" y2="35.88" gradientTransform="matrix(-1, 0, 0, 1, 95.79, 0)" xlink:href="#linear-gradient-3"/></defs><g class="cls-1"><g id="Layer_1" data-name="Layer 1"><path d="M74.63,37.68h4.61a3.11,3.11,0,0,1,3.11,3.11V60.2a3.12,3.12,0,0,1-3.11,3.12H74.63a3.12,3.12,0,0,1-3.12-3.12V40.79A3.12,3.12,0,0,1,74.63,37.68Z"/><g class="cls-2"><polygon points="76.93 62.33 82.35 59.13 82.35 57.94 76.93 61.14 76.93 62.33"/><path d="M76.93,41.21l4.48-2.65a3.17,3.17,0,0,0-.94-.63L76.93,40Z"/><polygon points="76.93 59.31 82.35 56.11 82.35 54.92 76.93 58.12 76.93 59.31"/><path d="M79.24,63.32a3.11,3.11,0,0,0,3-2.29l-3.88,2.29Z"/><polygon points="76.93 56.29 82.35 53.09 82.35 51.9 76.93 55.1 76.93 56.29"/><polygon points="76.93 47.24 82.35 44.04 82.35 42.85 76.93 46.05 76.93 47.24"/><path d="M82.21,39.91,76.93,43v1.19L82.35,41v-.23A2.94,2.94,0,0,0,82.21,39.91Z"/><polygon points="76.93 53.28 82.35 50.08 82.35 48.89 76.93 52.09 76.93 53.28"/><polygon points="76.93 50.26 82.35 47.06 82.35 45.87 76.93 49.07 76.93 50.26"/><polygon points="76.94 47.48 71.51 44.41 71.51 45.61 76.94 48.69 76.94 47.48"/><polygon points="76.94 44.47 71.51 41.39 71.51 42.59 76.94 45.67 76.94 44.47"/><path d="M76.94,38.43l-1.33-.75h-1a3.31,3.31,0,0,0-.89.14l3.2,1.81Z"/><path d="M76.94,41.45l-4.68-2.66a3.17,3.17,0,0,0-.54.9l5.22,3Z"/><polygon points="76.94 56.54 71.51 53.46 71.51 54.66 76.94 57.74 76.94 56.54"/><path d="M71.51,60.2a3.07,3.07,0,0,0,.06.53l4.57,2.59h.8v-.75l-5.43-3.08Z"/><polygon points="76.94 59.55 71.51 56.48 71.51 57.68 76.94 60.76 76.94 59.55"/><polygon points="76.94 50.5 71.51 47.42 71.51 48.63 76.94 51.7 76.94 50.5"/><polygon points="76.94 53.52 71.51 50.44 71.51 50.5 71.51 51.64 76.94 54.72 76.94 53.52"/></g><path d="M8.92,37.44h4.6a3.11,3.11,0,0,1,3.12,3.11V60a3.11,3.11,0,0,1-3.12,3.12H8.92A3.12,3.12,0,0,1,5.8,60V40.55A3.12,3.12,0,0,1,8.92,37.44Z"/><g class="cls-2"><polygon points="11.22 62.09 16.64 58.89 16.64 57.7 11.22 60.9 11.22 62.09"/><path d="M11.22,41l4.48-2.64a3.06,3.06,0,0,0-.95-.64l-3.53,2.09Z"/><polygon points="11.22 59.07 16.64 55.87 16.64 54.68 11.22 57.88 11.22 59.07"/><path d="M13.52,63.08a3.09,3.09,0,0,0,3-2.29l-3.87,2.29Z"/><polygon points="11.22 56.06 16.64 52.86 16.64 51.66 11.22 54.86 11.22 56.06"/><polygon points="11.22 47 16.64 43.8 16.64 42.61 11.22 45.81 11.22 47"/><path d="M16.5,39.68l-5.28,3.11V44l5.42-3.2v-.24A3.17,3.17,0,0,0,16.5,39.68Z"/><polygon points="11.22 53.04 16.64 49.84 16.64 48.65 11.22 51.85 11.22 53.04"/><polygon points="11.22 50.02 16.64 46.82 16.64 45.63 11.22 48.83 11.22 50.02"/><polygon points="11.23 47.24 5.8 44.17 5.8 45.37 11.23 48.45 11.23 47.24"/><polygon points="11.23 44.23 5.8 41.15 5.8 42.35 11.23 45.43 11.23 44.23"/><path d="M11.23,38.19,9.9,37.44h-1a3.25,3.25,0,0,0-.89.14l3.2,1.82Z"/><path d="M11.23,41.21,6.55,38.55a3.17,3.17,0,0,0-.54.9l5.22,3Z"/><polygon points="11.23 56.3 5.8 53.22 5.8 54.42 11.23 57.5 11.23 56.3"/><path d="M5.8,60a3.07,3.07,0,0,0,0,.53l4.57,2.59h.81v-.75L5.8,59.26Z"/><polygon points="11.23 59.31 5.8 56.24 5.8 57.44 11.23 60.52 11.23 59.31"/><polygon points="11.23 50.26 5.8 47.19 5.8 48.39 11.23 51.47 11.23 50.26"/><polygon points="11.23 53.28 5.8 50.2 5.8 50.26 5.8 51.41 11.23 54.48 11.23 53.28"/></g><path class="cls-3" d="M73,19.3s-.57-3.77,3.2-2.83,5.47,3.21,4.9,4.9-8.13.95-8.13.95L70.75,19.4Z"/><path d="M76.5,22c-1.42,0-2.75-.11-3.25-.15l-1.52-2,1.86-.08-.08-.55a2.87,2.87,0,0,1,.42-1.95,1.48,1.48,0,0,1,1.19-.46,4.12,4.12,0,0,1,1,.14,6.67,6.67,0,0,1,4.34,2.71,1.94,1.94,0,0,1,.21,1.55S80.35,22,76.5,22Z"/><path class="cls-4" d="M14.31,19.3s.57-3.77-3.21-2.83-5.46,3.21-4.9,4.9,8.14.95,8.14.95l2.23-2.92Z"/><path d="M10.83,22c1.41,0,2.74-.11,3.25-.15l1.52-2-1.86-.08.07-.55a2.79,2.79,0,0,0-.41-1.95,1.48,1.48,0,0,0-1.19-.46,4.12,4.12,0,0,0-1,.14,6.67,6.67,0,0,0-4.34,2.71,1.9,1.9,0,0,0-.21,1.55S7,22,10.83,22Z"/><path class="cls-5" d="M66.91,9.46c0,2.33-10.41,4.22-23.25,4.22S20.42,11.79,20.42,9.46,30.83,5.24,43.66,5.24,66.91,7.13,66.91,9.46Z"/><path class="cls-6" d="M80.49,27.48c-.61-.91-4.64-4.33-5.1-5.32,0,0-3.77-14.45-12.41-14.45H24.32c-8.63,0-12.41,14.45-12.41,14.45h0c-.45,1-4.48,4.41-5.09,5.32-2.32,3.46-2.18,10-2.18,10v7.68a2,2,0,0,0,2,2l37-.2,37,.2a2,2,0,0,0,2-2V37.44S82.81,30.94,80.49,27.48Z"/><polygon class="cls-7" points="69.55 47.01 17.97 47.01 21.77 32.78 65.74 32.78 69.55 47.01"/><path class="cls-8" d="M4.66,40.36l9.7-12.95,5.57-3.36-.11-14.9c-5.46,3.65-7.91,13-7.91,13h0c-.45,1-4.48,4.41-5.09,5.32-2.32,3.46-2.18,10-2.18,10v2.92Z"/><path class="cls-5" d="M82.66,40.36,73,27.41,67.4,24.05l.11-14.9c5.46,3.65,7.91,13,7.91,13h0c.46,1,4.49,4.41,5.1,5.32,2.32,3.46,2.17,10,2.17,10v2.92Z"/><path class="cls-6" d="M67.15,37.39l-7.64,4.33h-32l-7.65-4.33H4.61c0,2.7.07,10.43.07,10.43a6.3,6.3,0,0,0,6.49,6.1h65.1a6.31,6.31,0,0,0,6.49-6.1c0-3.37,0-7.83,0-10.43Z"/><path class="cls-9" d="M4.69,48a6.31,6.31,0,0,0,6.48,5.91h65.1A6.31,6.31,0,0,0,82.75,48Z"/><polygon class="cls-10" points="33.27 49.8 10.47 49.8 10.75 45.22 32.12 45.22 33.27 49.8"/><rect class="cls-11" x="11.03" y="45.22" width="0.38" height="2.29"/><rect class="cls-11" x="12.3" y="45.22" width="0.38" height="2.29"/><rect class="cls-11" x="13.57" y="45.22" width="0.38" height="2.29"/><rect class="cls-11" x="14.84" y="45.22" width="0.38" height="2.29"/><rect class="cls-11" x="16.11" y="45.22" width="0.38" height="2.29"/><rect class="cls-11" x="17.39" y="45.22" width="0.38" height="2.29"/><rect class="cls-11" x="18.66" y="45.22" width="0.38" height="2.29"/><rect class="cls-11" x="19.93" y="45.22" width="0.38" height="2.29"/><rect class="cls-11" x="21.2" y="45.22" width="0.38" height="2.29"/><rect class="cls-11" x="22.47" y="45.22" width="0.38" height="2.29"/><rect class="cls-11" x="23.74" y="45.22" width="0.38" height="2.29"/><rect class="cls-11" x="25.01" y="45.22" width="0.38" height="2.29"/><rect class="cls-11" x="26.28" y="45.22" width="0.38" height="2.29"/><rect class="cls-11" x="27.55" y="45.22" width="0.38" height="2.29"/><rect class="cls-11" x="28.83" y="45.22" width="0.38" height="2.29"/><rect class="cls-11" x="30.1" y="45.22" width="0.38" height="2.29"/><rect class="cls-11" x="31.37" y="45.22" width="0.38" height="2.29"/><polygon class="cls-12" points="32.14 45.22 10.76 45.22 11.35 44.72 31.56 44.72 32.14 45.22"/><polygon class="cls-10" points="54.05 49.8 76.57 49.8 76.58 45.22 55.21 45.22 54.05 49.8"/><rect class="cls-11" x="75.92" y="45.22" width="0.38" height="2.29"/><rect class="cls-11" x="74.64" y="45.22" width="0.38" height="2.29"/><rect class="cls-11" x="73.37" y="45.22" width="0.38" height="2.29"/><rect class="cls-11" x="72.1" y="45.22" width="0.38" height="2.29"/><rect class="cls-11" x="70.83" y="45.22" width="0.38" height="2.29"/><rect class="cls-11" x="69.56" y="45.22" width="0.38" height="2.29"/><rect class="cls-11" x="68.29" y="45.22" width="0.38" height="2.29"/><rect class="cls-11" x="67.02" y="45.22" width="0.38" height="2.29"/><rect class="cls-11" x="65.75" y="45.22" width="0.38" height="2.29"/><rect class="cls-11" x="64.48" y="45.22" width="0.38" height="2.29"/><rect class="cls-11" x="63.2" y="45.22" width="0.38" height="2.29"/><rect class="cls-11" x="61.93" y="45.22" width="0.38" height="2.29"/><rect class="cls-11" x="60.66" y="45.22" width="0.38" height="2.29"/><rect class="cls-11" x="59.39" y="45.22" width="0.38" height="2.29"/><rect class="cls-11" x="58.12" y="45.22" width="0.38" height="2.29"/><rect class="cls-11" x="56.85" y="45.22" width="0.38" height="2.29"/><rect class="cls-11" x="55.58" y="45.22" width="0.38" height="2.29"/><polygon class="cls-12" points="55.19 45.22 76.57 45.22 75.98 44.72 55.77 44.72 55.19 45.22"/><rect class="cls-13" x="33.22" y="37.39" width="21.08" height="4.74"/><rect class="cls-12" x="33.22" y="41.72" width="21.08" height="0.41"/><polygon class="cls-14" points="70.04 37.89 70.04 33.88 78.44 33.88 81.44 37.89 70.04 37.89"/><polygon class="cls-15" points="70.54 37.39 80.44 37.39 78.19 34.38 70.54 34.38 70.54 37.39"/><g class="cls-16"><path class="cls-14" d="M75.93,36.21c-.06-.28.17-1,.63-.75s.9-.15,1.12-.24.47.39.25.94S76.36,38.16,75.93,36.21Z"/><path class="cls-17" d="M76,36.19c-.06-.25.16-.91.59-.69s.83-.14,1-.22.44.36.23.87S76.4,38,76,36.19Z"/><path class="cls-18" d="M76.07,36.18c0-.23.15-.84.55-.64s.76-.12.94-.2.41.33.22.8S76.44,37.85,76.07,36.18Z"/><path class="cls-19" d="M76.15,36.17c-.05-.21.13-.77.49-.58s.7-.12.87-.19.37.3.2.73S76.48,37.69,76.15,36.17Z"/><path class="cls-20" d="M76.22,36.16c0-.2.12-.7.45-.53s.63-.11.78-.17.34.28.18.66S76.53,37.54,76.22,36.16Z"/><path class="cls-21" d="M76.29,36.14c0-.17.11-.62.41-.47s.56-.09.7-.15.3.25.16.59S76.57,37.38,76.29,36.14Z"/><path class="cls-22" d="M76.37,36.13c0-.15.09-.55.35-.42s.5-.08.62-.13.27.22.14.52S76.61,37.22,76.37,36.13Z"/><path class="cls-23" d="M76.44,36.12c0-.13.09-.48.31-.36s.43-.08.54-.12.23.19.12.45S76.65,37.07,76.44,36.12Z"/><path class="cls-24" d="M76.52,36.11c0-.12.07-.41.26-.31s.36-.06.45-.1.2.16.11.39S76.69,36.91,76.52,36.11Z"/><path class="cls-25" d="M76.59,36.09c0-.09.06-.33.21-.25s.3-.05.38-.08.16.13.08.32S76.73,36.75,76.59,36.09Z"/><path class="cls-26" d="M76.66,36.08c0-.07,0-.26.17-.2s.24,0,.29-.06.13.1.07.25S76.77,36.6,76.66,36.08Z"/><path class="cls-27" d="M76.74,36.07s0-.19.12-.14.17,0,.21,0,.09.08.05.18S76.82,36.44,76.74,36.07Z"/></g><g class="cls-16"><path class="cls-14" d="M74.86,35.78a2,2,0,1,1-2-1.93A2,2,0,0,1,74.86,35.78Z"/><path class="cls-17" d="M74.74,35.78A1.87,1.87,0,1,1,72.87,34,1.84,1.84,0,0,1,74.74,35.78Z"/><path class="cls-18" d="M74.63,35.78a1.76,1.76,0,1,1-1.76-1.71A1.73,1.73,0,0,1,74.63,35.78Z"/><path class="cls-19" d="M74.52,35.78a1.65,1.65,0,1,1-1.65-1.6A1.62,1.62,0,0,1,74.52,35.78Z"/><path class="cls-20" d="M74.41,35.78a1.54,1.54,0,1,1-1.54-1.49A1.51,1.51,0,0,1,74.41,35.78Z"/><path class="cls-21" d="M74.3,35.78a1.43,1.43,0,1,1-1.43-1.38A1.41,1.41,0,0,1,74.3,35.78Z"/><path class="cls-22" d="M74.18,35.78a1.31,1.31,0,1,1-1.31-1.27A1.29,1.29,0,0,1,74.18,35.78Z"/><path class="cls-23" d="M74.07,35.78a1.2,1.2,0,1,1-1.2-1.17A1.18,1.18,0,0,1,74.07,35.78Z"/><path class="cls-24" d="M74,35.78a1.09,1.09,0,1,1-1.09-1.06A1.07,1.07,0,0,1,74,35.78Z"/><path class="cls-25" d="M73.85,35.78a1,1,0,1,1-1-1A1,1,0,0,1,73.85,35.78Z"/><path class="cls-26" d="M73.73,35.78a.86.86,0,1,1-.86-.84A.84.84,0,0,1,73.73,35.78Z"/><path class="cls-27" d="M73.62,35.78a.75.75,0,1,1-.75-.73A.73.73,0,0,1,73.62,35.78Z"/></g><polygon class="cls-14" points="17.07 37.89 17.07 33.88 8.67 33.88 5.67 37.89 17.07 37.89"/><polygon class="cls-28" points="16.57 37.39 6.67 37.39 8.92 34.38 16.57 34.38 16.57 37.39"/><g class="cls-16"><path class="cls-14" d="M11.18,36.21c.06-.28-.17-1-.63-.75s-.9-.15-1.12-.24-.47.39-.25.94S10.75,38.16,11.18,36.21Z"/><path class="cls-17" d="M11.11,36.19c.06-.25-.16-.91-.59-.69s-.83-.14-1-.22-.44.36-.23.87S10.71,38,11.11,36.19Z"/><path class="cls-18" d="M11,36.18c.05-.23-.15-.84-.55-.64s-.76-.12-.94-.2-.41.33-.22.8S10.67,37.85,11,36.18Z"/><path class="cls-19" d="M11,36.17c0-.21-.13-.77-.49-.58s-.7-.12-.87-.19-.37.3-.19.73S10.63,37.69,11,36.17Z"/><path class="cls-20" d="M10.89,36.16c0-.2-.12-.7-.45-.53s-.63-.11-.78-.17-.34.28-.18.66S10.58,37.54,10.89,36.16Z"/><path class="cls-21" d="M10.82,36.14c0-.17-.11-.62-.41-.47s-.56-.09-.7-.15-.3.25-.16.59S10.54,37.38,10.82,36.14Z"/><path class="cls-22" d="M10.74,36.13c0-.15-.09-.55-.35-.42s-.5-.08-.62-.13-.27.22-.14.52S10.5,37.22,10.74,36.13Z"/><path class="cls-23" d="M10.67,36.12c0-.13-.09-.48-.31-.36s-.43-.08-.54-.12-.23.19-.12.45S10.46,37.07,10.67,36.12Z"/><path class="cls-24" d="M10.59,36.11c0-.12-.07-.41-.26-.31s-.36-.06-.45-.1-.2.16-.11.39S10.42,36.91,10.59,36.11Z"/><path class="cls-25" d="M10.52,36.09c0-.09-.06-.33-.21-.25s-.3-.05-.38-.08-.16.13-.08.32S10.38,36.75,10.52,36.09Z"/><path class="cls-26" d="M10.45,36.08c0-.07,0-.26-.17-.2s-.24,0-.29-.06-.13.1-.07.25S10.34,36.6,10.45,36.08Z"/><path class="cls-27" d="M10.37,36.07s0-.19-.12-.14-.17,0-.21,0-.09.08,0,.18S10.29,36.44,10.37,36.07Z"/></g><g class="cls-16"><path class="cls-14" d="M12.25,35.78a2,2,0,1,0,2-1.93A2,2,0,0,0,12.25,35.78Z"/><path class="cls-17" d="M12.37,35.78A1.87,1.87,0,1,0,14.24,34,1.84,1.84,0,0,0,12.37,35.78Z"/><path class="cls-18" d="M12.48,35.78a1.76,1.76,0,1,0,1.76-1.71A1.73,1.73,0,0,0,12.48,35.78Z"/><path class="cls-19" d="M12.59,35.78a1.65,1.65,0,1,0,1.65-1.6A1.62,1.62,0,0,0,12.59,35.78Z"/><path class="cls-20" d="M12.7,35.78a1.54,1.54,0,1,0,1.54-1.49A1.51,1.51,0,0,0,12.7,35.78Z"/><path class="cls-21" d="M12.81,35.78a1.43,1.43,0,1,0,1.43-1.38A1.41,1.41,0,0,0,12.81,35.78Z"/><path class="cls-22" d="M12.93,35.78a1.31,1.31,0,1,0,1.31-1.27A1.29,1.29,0,0,0,12.93,35.78Z"/><path class="cls-23" d="M13,35.78a1.2,1.2,0,1,0,1.2-1.17A1.18,1.18,0,0,0,13,35.78Z"/><path class="cls-24" d="M13.15,35.78a1.09,1.09,0,1,0,1.09-1.06A1.07,1.07,0,0,0,13.15,35.78Z"/><path class="cls-25" d="M13.26,35.78a1,1,0,1,0,1-1A1,1,0,0,0,13.26,35.78Z"/><path class="cls-26" d="M13.38,35.78a.86.86,0,1,0,.86-.84A.84.84,0,0,0,13.38,35.78Z"/><path class="cls-27" d="M13.49,35.78a.75.75,0,1,0,.75-.73A.73.73,0,0,0,13.49,35.78Z"/></g><rect class="cls-29" x="17.97" y="20.79" width="51.59" height="5.95"/><rect class="cls-30" x="17.97" y="22.38" width="51.59" height="2.77"/><rect class="cls-12" x="17.97" y="20.79" width="51.59" height="1.59"/><rect class="cls-29" x="26.66" y="22.38" width="1.27" height="8.86"/><rect class="cls-29" x="60.03" y="22.38" width="1.27" height="8.86"/><polygon class="cls-30" points="29.02 26.73 27.93 26.73 27.93 31.23 27.93 31.23 29.02 26.73"/><polygon class="cls-30" points="59.04 26.73 60.12 26.73 60.12 31.23 60.12 31.23 59.04 26.73"/><path class="cls-31" d="M43.66,11.49c-5.74,0-10.39,1-10.39,2.33v4.26H54.05V13.82C54.05,12.54,49.4,11.49,43.66,11.49Z"/><rect class="cls-30" x="33.27" y="16.63" width="20.78" height="0.36"/><rect class="cls-30" x="33.27" y="15.71" width="20.78" height="0.36"/><rect class="cls-30" x="33.27" y="14.79" width="20.78" height="0.36"/><rect class="cls-30" x="33.27" y="13.87" width="20.78" height="0.36"/><rect class="cls-30" x="32.14" y="36.63" width="23.44" height="0.76"/><rect class="cls-30" x="21.77" y="32.78" width="44.11" height="0.51"/><path class="cls-10" d="M35.3,49.79c-2.87,0-5.2,1.85-5.2,4.13H40.51C40.51,51.64,38.18,49.79,35.3,49.79Z"/><path class="cls-13" d="M38.18,53.92a2.88,2.88,0,1,1-2.88-2.87A2.87,2.87,0,0,1,38.18,53.92Z"/><path class="cls-31" d="M35.3,55.79a1.87,1.87,0,1,1,1.88-1.87A1.87,1.87,0,0,1,35.3,55.79Z"/><path class="cls-32" d="M35.3,51.85a2.88,2.88,0,0,1,2.84,2.47,2.58,2.58,0,0,0,0-.4,2.88,2.88,0,0,0-5.75,0,2.58,2.58,0,0,0,0,.4A2.87,2.87,0,0,1,35.3,51.85Z"/><path class="cls-10" d="M51.64,49.79c-2.87,0-5.21,1.85-5.21,4.13H56.85C56.85,51.64,54.52,49.79,51.64,49.79Z"/><path class="cls-13" d="M54.51,53.92a2.87,2.87,0,1,1-2.87-2.87A2.86,2.86,0,0,1,54.51,53.92Z"/><path class="cls-31" d="M51.64,55.79a1.87,1.87,0,1,1,1.87-1.87A1.87,1.87,0,0,1,51.64,55.79Z"/><path class="cls-32" d="M51.64,51.85a2.86,2.86,0,0,1,2.83,2.47,2.58,2.58,0,0,0,0-.4,2.87,2.87,0,1,0-5.74,0,2.58,2.58,0,0,0,0,.4A2.87,2.87,0,0,1,51.64,51.85Z"/></g></g></svg>