<?xml version="1.0" encoding="utf-8"?>
<!-- Generator: Adobe Illustrator 24.0.2, SVG Export Plug-In . SVG Version: 6.00 Build 0)  -->
<svg version="1.1" id="Laag_1" xmlns="http://www.w3.org/2000/svg" xmlns:xlink="http://www.w3.org/1999/xlink" x="0px" y="0px"
	 viewBox="0 0 722 728.9" style="enable-background:new 0 0 722 728.9;" xml:space="preserve">
<style type="text/css">
	.st0{fill:none;stroke:#FFFFFF;stroke-width:4;stroke-miterlimit:10;}
</style>
<title>grid</title>
<line class="st0" x1="-45.1" y1="74.8" x2="744" y2="74.8"/>
<line class="st0" x1="-45.1" y1="2.7" x2="744" y2="2.7"/>
<line class="st0" x1="-45.1" y1="147.7" x2="744" y2="147.7"/>
<line class="st0" x1="-45.1" y1="220.6" x2="744" y2="220.6"/>
<line class="st0" x1="-45.1" y1="293.5" x2="744" y2="293.5"/>
<line class="st0" x1="-45.1" y1="366.4" x2="744" y2="366.4"/>
<line class="st0" x1="-45.1" y1="439.3" x2="744" y2="439.3"/>
<line class="st0" x1="-45.1" y1="512.2" x2="744" y2="512.2"/>
<line class="st0" x1="-45.1" y1="585.1" x2="744" y2="585.1"/>
<line class="st0" x1="-45.1" y1="658" x2="744" y2="658"/>
<line class="st0" x1="-45.1" y1="732.9" x2="744" y2="732.9"/>
<line class="st0" x1="35.5" y1="791" x2="35.5" y2="2"/>
<line class="st0" x1="108.4" y1="791" x2="108.4" y2="2"/>
<line class="st0" x1="181.3" y1="791" x2="181.3" y2="2"/>
<line class="st0" x1="254.2" y1="791" x2="254.2" y2="2"/>
<line class="st0" x1="327.1" y1="791" x2="327.1" y2="2"/>
<line class="st0" x1="400" y1="791" x2="400" y2="2"/>
<line class="st0" x1="472.9" y1="791" x2="472.9" y2="2"/>
<line class="st0" x1="545.8" y1="791" x2="545.8" y2="2"/>
<line class="st0" x1="618.7" y1="791" x2="618.7" y2="2"/>
<line class="st0" x1="691.6" y1="791" x2="691.6" y2="2"/>
</svg>
